<svg xmlns="http://www.w3.org/2000/svg" viewBox="0 0 270 270">
  <defs>
    <style>
      .a {
        fill: #fff;
      }
    </style>
  </defs>
  <title>mpnn-mn10-1</title>
  <path d="M174.34,134.25h-.4a11.95,11.95,0,1,0-3.5,8.46,11.9,11.9,0,0,0,3.5-8.46h.8A12.76,12.76,0,1,1,162,121.49a12.76,12.76,0,0,1,12.76,12.76Z"/>
  <path d="M163.52,137.17v-.51h-.76v-2.83c0-1.14-.59-1.57-1.68-1.57a2.06,2.06,0,0,0-1.84,1.05h0V129.6l-1.93.09v.51c.67,0,.75,0,.75.42v6h-.75v.51l1.37,0,1.38,0v-.51h-.76v-2.28a1.66,1.66,0,0,1,1.63-1.73c.37,0,.6.23.6,1.06v2.95h-.75v.51l1.37,0Z"/>
  <path d="M166.3,137.67l-.12-.11c-.09,0-.11.06-.13.14-.19.64-.51,1-.83,1-.1,0-.19,0-.19-.25a1.31,1.31,0,0,1,.16-.58l.24-.65.25-.64a2.23,2.23,0,0,0,.17-.57.69.69,0,0,0-.73-.68c-.77,0-1.1,1.12-1.1,1.22l.12.11c.1,0,.11-.05.13-.13.22-.76.59-1,.83-1s.19,0,.19.26a1.3,1.3,0,0,1-.09.43l-.21.55c-.22.52-.22.54-.43,1.1a1,1,0,0,0-.08.35.68.68,0,0,0,.72.68C166,138.89,166.3,137.77,166.3,137.67Zm-.15-3.83a.3.3,0,0,0-.31-.31.46.46,0,0,0-.44.43.3.3,0,0,0,.31.31A.46.46,0,0,0,166.15,133.84Z"/>
  <path d="M226.22,184.36h-.4a13.74,13.74,0,1,0-4,9.7,13.72,13.72,0,0,0,4-9.7h.8a14.53,14.53,0,1,1-14.53-14.53,14.52,14.52,0,0,1,14.53,14.53Z"/>
  <path d="M210.39,184a3,3,0,0,1-2.57,3l1.12-4.49A1.42,1.42,0,0,1,210.39,184Zm-1.73-1.51L207.53,187a1.43,1.43,0,0,1-1.44-1.51A3,3,0,0,1,208.66,182.49Zm2.44,1.74a2,2,0,0,0-2.1-2l.62-2.48,0-.15a.12.12,0,0,0-.13-.11c-.11,0-.12,0-.17.22l-.63,2.52a3.44,3.44,0,0,0-3.34,3,2,2,0,0,0,2.1,2l-.25,1c-.13.51-.24.93-.24,1s.07.12.13.12l.11,0a4.44,4.44,0,0,0,.12-.44l.41-1.62A3.43,3.43,0,0,0,211.1,184.23Z"/>
  <path d="M218.57,187.58l-.12-.1c-.09,0-.11.05-.13.13-.19.66-.53,1-.83,1-.13,0-.19-.08-.19-.27a1.49,1.49,0,0,1,.14-.55,6.55,6.55,0,0,0,.47-1.67c0-.6-.41-.88-1-.88a1.65,1.65,0,0,0-1.36.78.86.86,0,0,0-1-.78,1.6,1.6,0,0,0-1.29.7.77.77,0,0,0-.81-.7.67.67,0,0,0-.61.44,3.35,3.35,0,0,0-.27.78l.12.1c.1,0,.11,0,.16-.24.1-.39.24-.86.58-.86s.25.2.25.38a2.7,2.7,0,0,1-.1.55l-.17.65-.29,1.19a2.18,2.18,0,0,0-.08.35.24.24,0,0,0,.25.25.4.4,0,0,0,.32-.19c0-.05.09-.32.13-.49l.18-.71.13-.54.09-.35a2.46,2.46,0,0,1,.63-.82,1.19,1.19,0,0,1,.75-.27c.3,0,.46.18.46.54a3.23,3.23,0,0,1-.14.74l-.24.95-.12.48a2.89,2.89,0,0,0-.09.41.24.24,0,0,0,.25.25.4.4,0,0,0,.32-.19c0-.05.09-.32.13-.49l.18-.71c0-.12.1-.42.13-.54a1.48,1.48,0,0,1,.29-.7,1.45,1.45,0,0,1,1.17-.74c.29,0,.46.17.46.54a6.81,6.81,0,0,1-.49,1.74.93.93,0,0,0-.1.41.68.68,0,0,0,.72.68C218.25,188.8,218.57,187.69,218.57,187.58Z"/>
  <path d="M105.24,134.25h-.4a13.73,13.73,0,1,0-4,9.7,13.68,13.68,0,0,0,4-9.7h.8a14.53,14.53,0,1,1-14.52-14.53,14.52,14.52,0,0,1,14.52,14.53Z"/>
  <path d="M89.41,133.89a3,3,0,0,1-2.57,3L88,132.38A1.42,1.42,0,0,1,89.41,133.89Zm-1.73-1.51-1.12,4.49a1.42,1.42,0,0,1-1.44-1.51A3,3,0,0,1,87.68,132.38Zm2.44,1.74a2,2,0,0,0-2.09-2l.61-2.48,0-.15a.12.12,0,0,0-.13-.11c-.11,0-.12,0-.16.22l-.63,2.52a3.43,3.43,0,0,0-3.34,3,2,2,0,0,0,2.09,2l-.25,1c-.13.51-.24.93-.24,1s.08.12.13.12l.11,0a2.7,2.7,0,0,0,.12-.44l.42-1.62A3.43,3.43,0,0,0,90.12,134.12Z"/>
  <path d="M97.6,137.47l-.12-.1c-.1,0-.11,0-.14.13-.19.66-.52,1-.83,1-.12,0-.19-.08-.19-.27a1.52,1.52,0,0,1,.15-.55,7,7,0,0,0,.47-1.67c0-.6-.42-.88-1-.88a1.63,1.63,0,0,0-1.36.78.87.87,0,0,0-1-.78,1.58,1.58,0,0,0-1.29.7.78.78,0,0,0-.81-.7.7.7,0,0,0-.62.44,3.35,3.35,0,0,0-.27.78l.12.1c.1,0,.11,0,.17-.24.09-.39.24-.86.57-.86s.26.2.26.38a2.26,2.26,0,0,1-.11.55l-.16.65-.3,1.19c0,.12-.08.32-.08.35a.24.24,0,0,0,.26.25.38.38,0,0,0,.31-.19,3.94,3.94,0,0,0,.13-.49l.19-.71c0-.12.1-.42.12-.54l.09-.35a2.61,2.61,0,0,1,.63-.82,1.2,1.2,0,0,1,.76-.27c.29,0,.45.18.45.54a3.23,3.23,0,0,1-.14.74l-.23,1-.12.48a3.29,3.29,0,0,0-.1.41.24.24,0,0,0,.26.25.38.38,0,0,0,.31-.19,3.94,3.94,0,0,0,.13-.49l.18-.71c0-.12.11-.42.13-.54a1.38,1.38,0,0,1,.3-.7,1.42,1.42,0,0,1,1.17-.74c.28,0,.45.17.45.54a6.79,6.79,0,0,1-.48,1.74,1,1,0,0,0-.11.41.68.68,0,0,0,.72.68C97.27,138.69,97.6,137.58,97.6,137.47Z"/>
  <path d="M55.7,84.14h-.4a14.27,14.27,0,1,0-4.18,10.11A14.28,14.28,0,0,0,55.3,84.14h.8A15.1,15.1,0,1,1,41,69,15.1,15.1,0,0,1,56.1,84.14Z"/>
  <path d="M40.19,86.28v-.51h-.75V83c0-1.15-.59-1.57-1.68-1.57a2.06,2.06,0,0,0-1.84,1h0V78.71L34,78.8v.51c.67,0,.75,0,.75.43v6H34v.51l1.37,0,1.38,0v-.51H36V83.49a1.65,1.65,0,0,1,1.63-1.72c.37,0,.6.23.6,1.06v2.94h-.75v.51l1.37,0Z"/>
  <path d="M43.41,85.44a1.18,1.18,0,0,0,0-.28.76.76,0,0,0-.81-.75c-.85,0-1.34,1.11-1.34,1.22l.12.1c.09,0,.09,0,.15-.14.24-.55.65-1,1-1,.17,0,.27.11.27.38a1.88,1.88,0,0,1-.05.33l-.75,3c-.12.48-.51,1-1,1a.85.85,0,0,1-.26,0,.45.45,0,0,0,.28-.4.29.29,0,0,0-.31-.3.46.46,0,0,0-.45.46c0,.31.3.51.75.51a1.68,1.68,0,0,0,1.6-1.26ZM43.74,83a.3.3,0,0,0-.31-.3.46.46,0,0,0-.44.43.3.3,0,0,0,.31.3A.46.46,0,0,0,43.74,83Z"/>
  <path d="M47.1,87.91h-.22l-.17.54-.61,0H45l.76-.62c.2-.16.74-.55.92-.73a1.29,1.29,0,0,0,.43-.91c0-.74-.68-1.18-1.48-1.18a1.2,1.2,0,0,0-1.31,1.07.31.31,0,0,0,.32.34.32.32,0,0,0,.33-.32.32.32,0,0,0-.35-.32,1,1,0,0,1,.92-.54.92.92,0,0,1,1,1,1.81,1.81,0,0,1-.7,1.25l-1.41,1.3c-.06.06-.07.06-.07.25h2.6Z"/>
  <path d="M126,84.14h-.4a13.73,13.73,0,1,0-4,9.7,13.72,13.72,0,0,0,4-9.7h.8a14.53,14.53,0,1,1-14.53-14.53A14.53,14.53,0,0,1,126.4,84.14Z"/>
  <path d="M110.17,83.78a3,3,0,0,1-2.57,3l1.12-4.49A1.42,1.42,0,0,1,110.17,83.78Zm-1.73-1.51-1.13,4.49a1.43,1.43,0,0,1-1.44-1.51A3,3,0,0,1,108.44,82.27ZM110.88,84a2,2,0,0,0-2.1-2l.62-2.48,0-.15a.12.12,0,0,0-.13-.11c-.11,0-.12,0-.17.22L108.5,82a3.44,3.44,0,0,0-3.34,3,2,2,0,0,0,2.1,2L107,88c-.13.51-.24.93-.24,1s.07.12.13.12l.11,0a4.44,4.44,0,0,0,.12-.44l.41-1.62A3.43,3.43,0,0,0,110.88,84Z"/>
  <path d="M118.35,87.36l-.12-.1c-.09,0-.11,0-.13.13-.19.66-.53,1-.83,1-.13,0-.19-.08-.19-.27a1.49,1.49,0,0,1,.14-.55,6.55,6.55,0,0,0,.47-1.67c0-.6-.41-.88-1-.88a1.65,1.65,0,0,0-1.36.78.86.86,0,0,0-1-.78,1.6,1.6,0,0,0-1.29.7.77.77,0,0,0-.81-.7.67.67,0,0,0-.61.44,3.35,3.35,0,0,0-.27.78l.12.1c.1,0,.11,0,.16-.24.1-.39.24-.86.58-.86s.25.2.25.38a2.7,2.7,0,0,1-.1.55l-.17.65L111.92,88a2.18,2.18,0,0,0-.08.35.24.24,0,0,0,.25.25.4.4,0,0,0,.32-.19s.09-.32.13-.49l.18-.71.13-.54.09-.35a2.46,2.46,0,0,1,.63-.82,1.19,1.19,0,0,1,.75-.27c.3,0,.46.18.46.54a3.23,3.23,0,0,1-.14.74l-.24,1-.12.48a2.89,2.89,0,0,0-.09.41.24.24,0,0,0,.25.25.4.4,0,0,0,.32-.19s.09-.32.13-.49l.18-.71c0-.12.1-.42.13-.54a1.48,1.48,0,0,1,.29-.7,1.45,1.45,0,0,1,1.17-.74c.29,0,.46.17.46.54a6.81,6.81,0,0,1-.49,1.74.93.93,0,0,0-.1.41.68.68,0,0,0,.72.68C118,88.58,118.35,87.47,118.35,87.36Z"/>
  <path d="M76.46,34h-.4a14.29,14.29,0,1,0-4.19,10.11A14.25,14.25,0,0,0,76.06,34h.8a15.1,15.1,0,1,1-15.1-15.1A15.1,15.1,0,0,1,76.86,34Z"/>
  <path d="M61,36.17v-.51H60.2V32.84c0-1.15-.59-1.57-1.68-1.57a2.08,2.08,0,0,0-1.85,1h0V28.6l-1.93.09v.51c.68,0,.75,0,.75.43v6h-.75v.51l1.38,0,1.37,0v-.51h-.75V33.38a1.65,1.65,0,0,1,1.62-1.72c.38,0,.6.23.6,1.06v2.94H58.2v.51l1.38,0Z"/>
  <path d="M64.17,35.33a1.18,1.18,0,0,0,0-.28.76.76,0,0,0-.82-.75c-.84,0-1.33,1.11-1.33,1.22l.11.1c.09,0,.1,0,.16-.14.24-.55.64-1,1-1,.17,0,.26.11.26.38a1.26,1.26,0,0,1-.05.33l-.74,3c-.12.48-.51,1-1,1a.74.74,0,0,1-.26,0,.47.47,0,0,0,.28-.4.3.3,0,0,0-.31-.3.46.46,0,0,0-.45.46c0,.31.29.51.75.51a1.69,1.69,0,0,0,1.6-1.26Zm.33-2.49a.3.3,0,0,0-.31-.3.47.47,0,0,0-.45.43.3.3,0,0,0,.31.3A.47.47,0,0,0,64.5,32.84Z"/>
  <path d="M67.66,38.92v-.24H67.4c-.62,0-.62-.07-.62-.27V35.12c0-.18,0-.18-.2-.18a1.76,1.76,0,0,1-1.22.38v.24a2.14,2.14,0,0,0,.91-.17v3c0,.2,0,.27-.62.27H65.4v.24c.32,0,.79,0,1.13,0S67.33,38.89,67.66,38.92Z"/>
  <path d="M126,184.36h-.4a13.74,13.74,0,1,0-4,9.7,13.72,13.72,0,0,0,4-9.7h.8a14.53,14.53,0,1,1-14.53-14.53,14.53,14.53,0,0,1,14.53,14.53Z"/>
  <path d="M110.17,184a3,3,0,0,1-2.57,3l1.12-4.49A1.42,1.42,0,0,1,110.17,184Zm-1.73-1.51L107.31,187a1.43,1.43,0,0,1-1.44-1.51A3,3,0,0,1,108.44,182.49Zm2.44,1.74a2,2,0,0,0-2.1-2l.62-2.48,0-.15a.12.12,0,0,0-.13-.11c-.11,0-.12,0-.17.22l-.63,2.52a3.44,3.44,0,0,0-3.34,3,2,2,0,0,0,2.1,2l-.25,1c-.13.51-.24.93-.24,1s.07.12.13.12l.11,0a4.44,4.44,0,0,0,.12-.44l.41-1.62A3.43,3.43,0,0,0,110.88,184.23Z"/>
  <path d="M118.35,187.58l-.12-.1c-.09,0-.11.05-.13.13-.19.66-.53,1-.83,1-.13,0-.19-.08-.19-.27a1.49,1.49,0,0,1,.14-.55,6.55,6.55,0,0,0,.47-1.67c0-.6-.41-.88-1-.88a1.65,1.65,0,0,0-1.36.78.86.86,0,0,0-1-.78,1.6,1.6,0,0,0-1.29.7.77.77,0,0,0-.81-.7.67.67,0,0,0-.61.44,3.35,3.35,0,0,0-.27.78l.12.1c.1,0,.11,0,.16-.24.1-.39.24-.86.58-.86s.25.2.25.38a2.7,2.7,0,0,1-.1.55l-.17.65-.29,1.19a2.18,2.18,0,0,0-.08.35.24.24,0,0,0,.25.25.4.4,0,0,0,.32-.19c0-.05.09-.32.13-.49l.18-.71.13-.54.09-.35a2.46,2.46,0,0,1,.63-.82,1.19,1.19,0,0,1,.75-.27c.3,0,.46.18.46.54a3.23,3.23,0,0,1-.14.74l-.24.95-.12.48a2.89,2.89,0,0,0-.09.41.24.24,0,0,0,.25.25.4.4,0,0,0,.32-.19c0-.05.09-.32.13-.49l.18-.71c0-.12.1-.42.13-.54a1.48,1.48,0,0,1,.29-.7,1.45,1.45,0,0,1,1.17-.74c.29,0,.46.17.46.54a6.81,6.81,0,0,1-.49,1.74.93.93,0,0,0-.1.41.68.68,0,0,0,.72.68C118,188.8,118.35,187.69,118.35,187.58Z"/>
  <path d="M76.46,234.47h-.4a14.31,14.31,0,1,0-4.19,10.11,14.25,14.25,0,0,0,4.19-10.11h.8a15.1,15.1,0,1,1-15.1-15.1,15.09,15.09,0,0,1,15.1,15.1Z"/>
  <path d="M61,236.61v-.51H60.2v-2.82c0-1.15-.59-1.57-1.68-1.57a2.08,2.08,0,0,0-1.85,1h0V229l-1.93.09v.51c.68,0,.75,0,.75.43v6h-.75v.51l1.38,0,1.37,0v-.51h-.75v-2.28a1.65,1.65,0,0,1,1.62-1.72c.38,0,.6.23.6,1.06v2.94H58.2v.51l1.38,0Z"/>
  <path d="M64.17,235.77a1.18,1.18,0,0,0,0-.28.76.76,0,0,0-.82-.75c-.84,0-1.33,1.11-1.33,1.22l.11.1c.09,0,.1,0,.16-.14.24-.55.64-1,1-1,.17,0,.26.11.26.38a1.26,1.26,0,0,1-.05.33l-.74,3c-.12.48-.51,1-1,1a.74.74,0,0,1-.26,0,.47.47,0,0,0,.28-.4.3.3,0,0,0-.31-.3.46.46,0,0,0-.45.46c0,.31.29.51.75.51a1.69,1.69,0,0,0,1.6-1.26Zm.33-2.49a.3.3,0,0,0-.31-.3.47.47,0,0,0-.45.43.3.3,0,0,0,.31.3A.47.47,0,0,0,64.5,233.28Z"/>
  <path d="M67.91,238.32c0-.43-.34-.89-1-1.07a1.16,1.16,0,0,0,.86-1c0-.48-.57-.84-1.28-.84s-1.24.32-1.24.81a.32.32,0,1,0,.35-.3,1.28,1.28,0,0,1,.87-.31.62.62,0,0,1,.69.64.88.88,0,0,1-.78.94H66l-.13.11c0,.09.07.09.17.09h.34a.83.83,0,0,1,.85.95c0,.66-.39,1-.83,1a1.45,1.45,0,0,1-1-.39.32.32,0,0,0,.32-.34.33.33,0,0,0-.34-.34.33.33,0,0,0-.34.36c0,.59.66.92,1.42.92A1.34,1.34,0,0,0,67.91,238.32Z"/>
  <path d="M246,134.25h-.4a12.74,12.74,0,1,0-3.73,9,12.69,12.69,0,0,0,3.73-9h.8a13.54,13.54,0,1,1-13.54-13.54,13.54,13.54,0,0,1,13.54,13.54Z"/>
  <path d="M234.38,137v-.51h-.75v-2.83c0-1.15-.59-1.57-1.68-1.57a2,2,0,0,0-1.84,1h0v-3.71l-1.94.08V130c.68,0,.76,0,.76.42v6h-.76V137l1.38,0,1.37,0v-.51h-.75V134.2a1.66,1.66,0,0,1,1.63-1.73c.37,0,.6.23.6,1.06v2.95h-.76V137l1.38,0Z"/>
  <path d="M236.87,129a.45.45,0,0,0-.46-.43.43.43,0,0,0-.43.36l-1,3.45,0,.14c0,.1.25.17.31.17l.12-.12,1.45-3.36Z"/>
  <path d="M237.17,138.75l-.12-.1c-.1,0-.11.06-.14.14-.18.63-.51,1-.83,1-.09,0-.19,0-.19-.26a1.5,1.5,0,0,1,.16-.58l.25-.64.25-.65a2.1,2.1,0,0,0,.16-.56.68.68,0,0,0-.72-.68c-.77,0-1.11,1.12-1.11,1.22l.12.1c.11,0,.11,0,.14-.13.22-.75.59-1,.83-1s.19,0,.19.27a1.3,1.3,0,0,1-.09.43l-.22.55c-.21.52-.21.54-.43,1.09a1.05,1.05,0,0,0-.08.36.68.68,0,0,0,.73.67C236.84,140,237.17,138.86,237.17,138.75Zm-.15-3.83a.3.3,0,0,0-.31-.3.46.46,0,0,0-.44.43.3.3,0,0,0,.31.3A.46.46,0,0,0,237,134.92Z"/>
  <path d="M177.82,34h-.4a15.43,15.43,0,1,0-4.52,10.91A15.41,15.41,0,0,0,177.42,34h.8A16.24,16.24,0,1,1,162,17.79,16.24,16.24,0,0,1,178.22,34Z"/>
  <path d="M159.73,36.17v-.51H159V32.84c0-1.15-.59-1.57-1.68-1.57a2.08,2.08,0,0,0-1.85,1h0V28.6l-1.93.09v.51c.68,0,.75,0,.75.43v6h-.75v.51l1.37,0,1.38,0v-.51h-.75V33.38a1.64,1.64,0,0,1,1.62-1.72c.37,0,.6.23.6,1.06v2.94H157v.51l1.37,0Z"/>
  <path d="M165.83,35.33a1.18,1.18,0,0,0,0-.28.76.76,0,0,0-.82-.75c-.84,0-1.33,1.11-1.33,1.22l.12.1c.08,0,.09,0,.15-.14.24-.55.64-1,1-1,.17,0,.26.11.26.38a1.86,1.86,0,0,1,0,.33l-.75,3c-.12.48-.51,1-1,1a.74.74,0,0,1-.26,0,.45.45,0,0,0,.28-.4.3.3,0,0,0-.31-.3.46.46,0,0,0-.45.46c0,.31.3.51.75.51a1.68,1.68,0,0,0,1.6-1.26Zm.33-2.49a.3.3,0,0,0-.31-.3.47.47,0,0,0-.45.43.31.31,0,0,0,.32.3A.46.46,0,0,0,166.16,32.84Zm-3.65,3.83-.12-.1c-.09,0-.11,0-.13.13-.18.64-.51,1-.83,1-.09,0-.19,0-.19-.26a1.5,1.5,0,0,1,.16-.58l.25-.64.24-.65a2.12,2.12,0,0,0,.17-.57.68.68,0,0,0-.72-.67c-.78,0-1.11,1.11-1.11,1.22l.12.1c.1,0,.11,0,.13-.13.23-.75.59-1,.83-1s.19,0,.19.26a1.3,1.3,0,0,1-.09.43l-.21.55c-.22.53-.22.55-.43,1.1a1.05,1.05,0,0,0-.08.35.68.68,0,0,0,.72.68C162.19,37.89,162.51,36.78,162.51,36.67Zm-.15-3.83a.29.29,0,0,0-.31-.3.46.46,0,0,0-.44.43.3.3,0,0,0,.31.3A.46.46,0,0,0,162.36,32.84Z"/>
  <path d="M169.32,38.92v-.24h-.26c-.62,0-.62-.07-.62-.27V35.12c0-.18,0-.18-.2-.18a1.76,1.76,0,0,1-1.22.38v.24a2.14,2.14,0,0,0,.91-.17v3c0,.2,0,.27-.62.27h-.25v.24c.33,0,.79,0,1.13,0S169,38.89,169.32,38.92Z"/>
  <path d="M56.84,184.36h-.4a15.43,15.43,0,1,0-4.52,10.91,15.41,15.41,0,0,0,4.52-10.91h.8A16.24,16.24,0,1,1,41,168.13a16.23,16.23,0,0,1,16.23,16.23Z"/>
  <path d="M38.75,186.5V186H38v-2.82c0-1.15-.59-1.57-1.68-1.57a2.06,2.06,0,0,0-1.84,1h0v-3.71l-1.94.09v.51c.68,0,.76,0,.76.43v6h-.76v.51l1.38,0,1.37,0V186h-.75v-2.28A1.65,1.65,0,0,1,36.16,182c.37,0,.6.23.6,1.06V186H36v.51l1.38,0Z"/>
  <path d="M44.85,185.66a1.18,1.18,0,0,0,0-.28.76.76,0,0,0-.81-.75c-.85,0-1.34,1.11-1.34,1.22l.12.1c.09,0,.1,0,.15-.14.24-.55.65-1,1-1,.17,0,.27.11.27.38a1.88,1.88,0,0,1,0,.33l-.75,3c-.12.48-.51,1-1,1a.88.88,0,0,1-.27,0,.45.45,0,0,0,.28-.4.29.29,0,0,0-.31-.3.46.46,0,0,0-.45.46c0,.31.3.51.75.51a1.67,1.67,0,0,0,1.6-1.26Zm.34-2.49a.31.31,0,0,0-.32-.3.46.46,0,0,0-.44.43.3.3,0,0,0,.31.3A.47.47,0,0,0,45.19,183.17ZM41.54,187l-.12-.1c-.1,0-.11,0-.14.13-.18.64-.51,1-.83,1-.09,0-.19,0-.19-.26a1.5,1.5,0,0,1,.16-.58l.25-.64.25-.65a2.06,2.06,0,0,0,.16-.57.68.68,0,0,0-.72-.67c-.77,0-1.11,1.11-1.11,1.22l.12.1c.11,0,.11,0,.14-.13.22-.75.59-1,.83-1s.19,0,.19.26a1.3,1.3,0,0,1-.09.43l-.22.55c-.21.53-.21.55-.43,1.1a1.05,1.05,0,0,0-.08.35.69.69,0,0,0,.73.68C41.21,188.22,41.54,187.11,41.54,187Zm-.15-3.83a.3.3,0,0,0-.31-.3.46.46,0,0,0-.44.43.3.3,0,0,0,.31.3A.46.46,0,0,0,41.39,183.17Z"/>
  <path d="M48.54,188.13h-.22l-.16.54-.61,0H46.43l.76-.62c.21-.16.74-.55.92-.73a1.29,1.29,0,0,0,.43-.91c0-.74-.68-1.18-1.48-1.18a1.2,1.2,0,0,0-1.31,1.07.31.31,0,0,0,.32.34.32.32,0,0,0,.33-.32.31.31,0,0,0-.34-.32,1,1,0,0,1,.91-.54.93.93,0,0,1,1,.95,1.85,1.85,0,0,1-.7,1.25L45.82,189c-.06.06-.07.06-.07.25h2.6Z"/>
  <path d="M177.82,234.47h-.4a15.43,15.43,0,1,0-4.52,10.91,15.43,15.43,0,0,0,4.52-10.91h.8A16.24,16.24,0,1,1,162,218.24a16.24,16.24,0,0,1,16.24,16.23Z"/>
  <path d="M159.73,236.61v-.51H159v-2.82c0-1.15-.59-1.57-1.68-1.57a2.08,2.08,0,0,0-1.85,1h0V229l-1.93.09v.51c.68,0,.75,0,.75.43v6h-.75v.51l1.37,0,1.38,0v-.51h-.75v-2.28a1.64,1.64,0,0,1,1.62-1.72c.37,0,.6.23.6,1.06v2.94H157v.51l1.37,0Z"/>
  <path d="M165.83,235.77a1.18,1.18,0,0,0,0-.28.76.76,0,0,0-.82-.75c-.84,0-1.33,1.11-1.33,1.22l.12.1c.08,0,.09,0,.15-.14.24-.55.64-1,1-1,.17,0,.26.11.26.38a1.86,1.86,0,0,1,0,.33l-.75,3c-.12.48-.51,1-1,1a.74.74,0,0,1-.26,0,.45.45,0,0,0,.28-.4.3.3,0,0,0-.31-.3.46.46,0,0,0-.45.46c0,.31.3.51.75.51a1.68,1.68,0,0,0,1.6-1.26Zm.33-2.49a.3.3,0,0,0-.31-.3.47.47,0,0,0-.45.43.31.31,0,0,0,.32.3A.46.46,0,0,0,166.16,233.28Zm-3.65,3.83-.12-.1c-.09,0-.11.05-.13.13-.18.64-.51,1-.83,1-.09,0-.19,0-.19-.26a1.5,1.5,0,0,1,.16-.58l.25-.64.24-.65a2.12,2.12,0,0,0,.17-.57.68.68,0,0,0-.72-.67c-.78,0-1.11,1.11-1.11,1.22l.12.1c.1,0,.11-.05.13-.13.23-.75.59-1,.83-1s.19,0,.19.26a1.3,1.3,0,0,1-.09.43l-.21.55c-.22.53-.22.55-.43,1.1a1.05,1.05,0,0,0-.08.35.68.68,0,0,0,.72.68C162.19,238.33,162.51,237.22,162.51,237.11Zm-.15-3.83a.29.29,0,0,0-.31-.3.46.46,0,0,0-.44.43.3.3,0,0,0,.31.3A.46.46,0,0,0,162.36,233.28Z"/>
  <path d="M169.57,238.32c0-.43-.34-.89-1-1.07a1.16,1.16,0,0,0,.86-1c0-.48-.56-.84-1.28-.84s-1.23.32-1.23.81a.3.3,0,0,0,.31.33.31.31,0,0,0,.32-.31.31.31,0,0,0-.29-.32,1.29,1.29,0,0,1,.88-.31.61.61,0,0,1,.68.64.88.88,0,0,1-.78.94h-.32l-.13.11c0,.09.07.09.17.09h.35a1,1,0,0,1,0,1.9,1.45,1.45,0,0,1-1-.39.33.33,0,0,0,.33-.34.35.35,0,1,0-.69,0c0,.59.66.92,1.42.92A1.34,1.34,0,0,0,169.57,238.32Z"/>
  <path d="M200,176.35c-14.09-10-21.19-17.2-29.62-29.42l.66-.46c8.4,12.18,15.38,19.25,29.42,29.23l-.46.65Z"/>
  <path d="M170.09,145.85a13.14,13.14,0,0,1,1,4.36c.08-1.94.93-2.53,2.77-1.91A13.17,13.17,0,0,1,170.09,145.85Z"/>
  <path d="M170.09,145.85l.37-.16a13.79,13.79,0,0,1,1,4.49l-.4,0h-.4a4.34,4.34,0,0,1,.23-1.33,1.87,1.87,0,0,1,.66-.89,1.82,1.82,0,0,1,1.08-.31,4.35,4.35,0,0,1,1.33.25l-.13.38-.17.36a13.39,13.39,0,0,1-3.84-2.53l.27-.28.37-.16-.37.16.28-.29a12.89,12.89,0,0,0,3.63,2.38.4.4,0,0,1,.2.51.39.39,0,0,1-.49.23,3.42,3.42,0,0,0-1.08-.21,1.1,1.1,0,0,0-.63.16,1.08,1.08,0,0,0-.36.52,3.54,3.54,0,0,0-.18,1.08.4.4,0,0,1-.8,0,12.87,12.87,0,0,0-.93-4.24.38.38,0,0,1,.14-.48.39.39,0,0,1,.5,0Z"/>
  <path d="M105.35,131.33a130.14,130.14,0,0,1,21.89-2.15,107,107,0,0,1,19.86,2L147,132a105.72,105.72,0,0,0-19.72-2,128.8,128.8,0,0,0-21.75,2.14l-.14-.79Z"/>
  <path d="M148.05,131.78a13.4,13.4,0,0,1-3.78-2.4c1.32,1.42,1.14,2.44-.6,3.31A13.29,13.29,0,0,1,148.05,131.78Z"/>
  <path d="M148.05,131.78l-.15.37a13.76,13.76,0,0,1-3.89-2.47l.26-.3.3-.27a3.88,3.88,0,0,1,.77,1.1,1.78,1.78,0,0,1,.17,1.1,1.9,1.9,0,0,1-.55,1,4.29,4.29,0,0,1-1.12.76l-.17-.36-.14-.38a13.69,13.69,0,0,1,4.51-.93v.4l-.15.37.15-.37v.4a12.89,12.89,0,0,0-4.25.88.39.39,0,0,1-.5-.21.41.41,0,0,1,.19-.52,3.4,3.4,0,0,0,.91-.61,1,1,0,0,0,.32-.55,1,1,0,0,0-.1-.63,3.51,3.51,0,0,0-.64-.89.4.4,0,0,1,.55-.58,13,13,0,0,0,3.66,2.34.4.4,0,0,1-.14.77Z"/>
  <path d="M124,92.14c14.08,10,21.18,17.2,29.61,29.43L153,122c-8.4-12.17-15.38-19.25-29.42-29.23l.46-.65Z"/>
  <path d="M153.87,122.65a13.16,13.16,0,0,1-1-4.37c-.08,1.94-.93,2.53-2.78,1.91A13.39,13.39,0,0,1,153.87,122.65Z"/>
  <path d="M153.87,122.65l-.36.16a13.66,13.66,0,0,1-1-4.5l.4,0,.39,0a4.35,4.35,0,0,1-.23,1.34,1.91,1.91,0,0,1-.68.89,1.77,1.77,0,0,1-1.07.3,4.53,4.53,0,0,1-1.31-.26l.12-.38.17-.36a13.89,13.89,0,0,1,3.85,2.53l-.28.29-.36.16.36-.16-.27.28a13.18,13.18,0,0,0-3.64-2.38.41.41,0,0,1-.2-.51.4.4,0,0,1,.5-.22,3.62,3.62,0,0,0,1.07.21,1,1,0,0,0,.61-.15,1.12,1.12,0,0,0,.38-.53,3.5,3.5,0,0,0,.19-1.08.4.4,0,0,1,.39-.39.4.4,0,0,1,.4.37,13,13,0,0,0,.94,4.24.41.41,0,0,1-.14.49.39.39,0,0,1-.5,0Z"/>
  <path d="M119.88,172.23c10-14.08,17.2-21.18,29.42-29.61l.46.65c-12.17,8.4-19.25,15.38-29.23,29.42l-.65-.46Z"/>
  <path d="M150.38,142.36a13.39,13.39,0,0,1-4.36,1c1.94.07,2.53.92,1.91,2.77A13.38,13.38,0,0,1,150.38,142.36Z"/>
  <path d="M150.38,142.36l.16.36a13.54,13.54,0,0,1-4.49,1l0-.39v-.4a4.35,4.35,0,0,1,1.34.23,1.88,1.88,0,0,1,.9.68,1.76,1.76,0,0,1,.29,1.07,4.18,4.18,0,0,1-.25,1.31l-.38-.12-.36-.17a13.46,13.46,0,0,1,2.53-3.85l.28.28.16.36-.16-.36.29.27a13,13,0,0,0-2.38,3.64.4.4,0,0,1-.74-.3,3.69,3.69,0,0,0,.22-1.07,1,1,0,0,0-.16-.61,1,1,0,0,0-.52-.38,3.63,3.63,0,0,0-1.09-.19.4.4,0,0,1-.38-.39.39.39,0,0,1,.37-.4,13.11,13.11,0,0,0,4.24-.94.4.4,0,0,1,.44.64Z"/>
  <polyline points="174.74 133.85 216.88 133.85 216.88 134.65 174.74 134.65"/>
  <path d="M217.92,134.25a13.29,13.29,0,0,1-4.15-1.69c1.56,1.17,1.56,2.21,0,3.37A13.24,13.24,0,0,1,217.92,134.25Z"/>
  <path d="M217.92,134.25l-.08.39a13.73,13.73,0,0,1-4.27-1.73l.2-.35.24-.31a4.1,4.1,0,0,1,1,.94,1.87,1.87,0,0,1,.37,1.06,1.81,1.81,0,0,1-.37,1.05,4.33,4.33,0,0,1-1,.95l-.24-.32-.2-.34a13.73,13.73,0,0,1,4.27-1.73l.08.39-.08.39.08-.39.08.39a12.71,12.71,0,0,0-4,1.64.4.4,0,0,1-.53-.13.4.4,0,0,1,.09-.54,3.4,3.4,0,0,0,.79-.76.93.93,0,0,0,0-1.2,3.63,3.63,0,0,0-.79-.77.39.39,0,0,1-.09-.54.4.4,0,0,1,.53-.12,13,13,0,0,0,4,1.64.4.4,0,0,1,.32.39.41.41,0,0,1-.32.39Z"/>
  <path d="M202.65,170.21l0,0-.65.46,0,0,.65-.46Zm-3.56-4.82c.6.78,1.2,1.57,1.8,2.39l-.64.47c-.6-.81-1.2-1.6-1.79-2.37l.63-.49Zm-3.79-4.65c.65.75,1.29,1.52,1.93,2.3l-.62.5c-.63-.78-1.27-1.53-1.91-2.28l.6-.52Zm-4.06-4.41c.7.71,1.39,1.44,2.07,2.17l-.59.54c-.67-.73-1.35-1.44-2.05-2.15l.57-.56Zm-4.35-4.13c.76.67,1.49,1.35,2.21,2l-.55.58c-.71-.68-1.44-1.35-2.19-2l.53-.59Zm-4.59-3.86c.8.63,1.57,1.26,2.32,1.89l-.51.61c-.74-.62-1.51-1.25-2.3-1.88l.49-.62Zm-4.76-3.64c.83.61,1.63,1.2,2.4,1.79l-.48.64c-.77-.59-1.57-1.18-2.39-1.79l.47-.64Zm-4.88-3.46,2.45,1.71-.46.65-2.44-1.71.45-.65Z"/>
  <path d="M203,171.32a13.18,13.18,0,0,1-1-4.35c-.05,1.94-.9,2.54-2.75,1.95A13.53,13.53,0,0,1,203,171.32Z"/>
  <path d="M203,171.32l-.37.17a13.66,13.66,0,0,1-1.06-4.48l.4,0h.4a4.35,4.35,0,0,1-.22,1.33,1.79,1.79,0,0,1-.65.91,1.93,1.93,0,0,1-1.07.32,4.31,4.31,0,0,1-1.33-.24l.12-.38.17-.36a13.72,13.72,0,0,1,3.88,2.47l-.27.29-.37.17.37-.17-.28.29a12.84,12.84,0,0,0-3.66-2.33.39.39,0,0,1-.21-.5.4.4,0,0,1,.49-.24,3.67,3.67,0,0,0,1.08.2,1,1,0,0,0,.62-.17,1,1,0,0,0,.36-.53,3.29,3.29,0,0,0,.17-1.08.4.4,0,0,1,.79,0,12.83,12.83,0,0,0,1,4.22.4.4,0,0,1-.13.49.41.41,0,0,1-.51,0Z"/>
  <path d="M107.78,137.57h0l.13-.79h0l-.13.78Zm5.93.89c-1-.12-2-.26-3-.41l.12-.79c1,.15,2,.29,3,.41l-.1.79Zm6,.61c-1-.07-2-.16-3-.26l.08-.8c1,.11,2,.19,3,.27l-.06.79Zm6,.25c-1,0-2,0-3-.08l0-.79c1,0,2,.06,3,.07v.8Zm6-.15-3,.12,0-.8c1,0,2-.06,3-.12Zm6-.52c-1,.12-2,.22-3,.3l-.07-.79,3-.3.09.79Zm5.94-.79-3,.43-.1-.79,2.95-.43.12.79Zm5.9-1-3,.53-.13-.79,2.94-.52.14.78Z"/>
  <path d="M106.79,137a13.23,13.23,0,0,1,3.81,2.35c-1.34-1.41-1.17-2.43.56-3.32A13.17,13.17,0,0,1,106.79,137Z"/>
  <path d="M106.79,137l.15-.37a13.88,13.88,0,0,1,3.92,2.42l-.26.3-.29.28a4.55,4.55,0,0,1-.79-1.1,1.89,1.89,0,0,1-.18-1.11,1.82,1.82,0,0,1,.54-1,4,4,0,0,1,1.1-.77l.18.35.14.38a13.76,13.76,0,0,1-4.49,1l0-.4.15-.37-.15.37v-.4a12.78,12.78,0,0,0,4.24-.94.4.4,0,0,1,.32.73,3.75,3.75,0,0,0-.9.62,1,1,0,0,0-.31.55,1,1,0,0,0,.11.63,3.34,3.34,0,0,0,.65.89.4.4,0,0,1,0,.55.41.41,0,0,1-.55,0,12.74,12.74,0,0,0-3.69-2.29.39.39,0,0,1-.25-.43.41.41,0,0,1,.38-.34Z"/>
  <path d="M121.32,98.29l0,0,.65-.47,0,0-.65.46Zm3.56,4.82c-.6-.78-1.2-1.58-1.81-2.4l.64-.47c.6.82,1.2,1.61,1.8,2.38l-.63.49Zm3.78,4.64c-.64-.75-1.28-1.51-1.92-2.3l.62-.5c.63.78,1.26,1.54,1.91,2.28l-.61.52Zm4.07,4.41c-.71-.71-1.39-1.43-2.07-2.17l.59-.54q1,1.1,2,2.16l-.56.55Zm4.34,4.14c-.75-.68-1.49-1.35-2.2-2l.55-.58q1.07,1,2.19,2l-.54.6Zm4.59,3.86c-.8-.64-1.57-1.27-2.32-1.9l.52-.61c.74.63,1.51,1.25,2.3,1.89l-.5.62Zm4.76,3.63c-.82-.6-1.62-1.2-2.4-1.79l.49-.63c.77.59,1.56,1.18,2.39,1.78l-.48.64Zm4.89,3.47c-.85-.58-1.66-1.15-2.46-1.72l.46-.65,2.45,1.71-.45.66Z"/>
  <path d="M121,97.17a13.24,13.24,0,0,1,1,4.35c0-1.94.89-2.54,2.74-2A13.1,13.1,0,0,1,121,97.17Z"/>
  <path d="M121,97.17l.36-.16a13.58,13.58,0,0,1,1.07,4.48l-.4,0h-.4a4.35,4.35,0,0,1,.21-1.32,1.87,1.87,0,0,1,.64-.91,1.94,1.94,0,0,1,1.08-.32,4.38,4.38,0,0,1,1.34.23l-.13.38-.16.37a13.81,13.81,0,0,1-3.88-2.48l.27-.29.36-.16-.36.16.27-.29A13,13,0,0,0,125,99.21a.41.41,0,0,1,.21.51.41.41,0,0,1-.5.23,3.31,3.31,0,0,0-1.08-.19,1.1,1.1,0,0,0-.63.17,1,1,0,0,0-.35.53,3.61,3.61,0,0,0-.16,1.07.4.4,0,0,1-.8,0,13.17,13.17,0,0,0-1-4.23.4.4,0,0,1,.63-.45Z"/>
  <path d="M126,174.91l0,0-.46-.65,0,0,.46.64Zm4.82-3.56c-.78.6-1.57,1.2-2.39,1.81l-.47-.64q1.21-.9,2.37-1.8Zm4.65-3.78c-.75.64-1.52,1.29-2.3,1.92l-.5-.61c.78-.64,1.53-1.27,2.28-1.92l.52.61Zm4.41-4.07c-.71.71-1.44,1.39-2.17,2.07l-.54-.58c.73-.68,1.44-1.36,2.15-2.05l.56.56Zm4.13-4.34c-.67.75-1.35,1.49-2,2.2l-.57-.55c.67-.71,1.34-1.44,2-2.18l.59.53Zm3.86-4.59c-.63.8-1.26,1.57-1.89,2.32l-.61-.51c.62-.75,1.25-1.52,1.88-2.31l.62.5Zm3.64-4.76c-.61.82-1.2,1.62-1.79,2.4l-.64-.49c.59-.77,1.18-1.56,1.79-2.38l.64.47Zm3.46-4.88-1.71,2.45-.65-.46c.56-.79,1.13-1.61,1.71-2.45l.65.46Z"/>
  <path d="M124.91,175.22a13.18,13.18,0,0,1,4.35-1c-1.94-.05-2.54-.89-1.95-2.74A13.32,13.32,0,0,1,124.91,175.22Z"/>
  <path d="M124.91,175.22l-.17-.36a13.9,13.9,0,0,1,4.48-1.07l0,.4v.4a4.36,4.36,0,0,1-1.33-.21,1.89,1.89,0,0,1-.91-.65,1.93,1.93,0,0,1-.32-1.07,4.31,4.31,0,0,1,.24-1.33l.38.12.36.16a13.58,13.58,0,0,1-2.47,3.88l-.29-.27-.17-.36.17.36-.29-.27a12.9,12.9,0,0,0,2.33-3.67.4.4,0,0,1,.5-.21.41.41,0,0,1,.24.5,3.67,3.67,0,0,0-.2,1.08,1.14,1.14,0,0,0,.17.62,1.12,1.12,0,0,0,.53.36,3.62,3.62,0,0,0,1.08.16.41.41,0,0,1,.39.39.4.4,0,0,1-.36.41,13.1,13.1,0,0,0-4.23,1,.39.39,0,0,1-.45-.63Z"/>
  <path d="M77.32,119.89,79.41,122l-.56.56-2.09-2.09Zm-4.23-4.23,2.12,2.12-.57.56-2.11-2.11Zm-4.22-4.22L71,113.55l-.56.56L68.3,112Zm-4.23-4.23,2.11,2.11-.56.57-2.11-2.12ZM60.41,103l2.12,2.12-.57.56-2.11-2.11Zm-4.22-4.22,2.11,2.11-.56.56-2.12-2.11ZM52,94.53l2.11,2.11-.56.57L51.4,95.09Z"/>
  <path d="M79.86,123a13.4,13.4,0,0,1-1.74-4.12c.27,1.92-.46,2.66-2.38,2.38A13.4,13.4,0,0,1,79.86,123Z"/>
  <path d="M79.86,123l-.33.22a13.8,13.8,0,0,1-1.8-4.24l.39-.1.39-.06a3.89,3.89,0,0,1,0,1.36,1.86,1.86,0,0,1-.49,1,1.79,1.79,0,0,1-1,.49,4.31,4.31,0,0,1-1.34,0l.06-.4.1-.38a13.56,13.56,0,0,1,4.24,1.79l-.22.33-.33.22.33-.22-.22.33a13,13,0,0,0-4-1.68.4.4,0,0,1-.29-.47.39.39,0,0,1,.45-.31,4.05,4.05,0,0,0,1.09,0,1,1,0,0,0,.85-.85,3.69,3.69,0,0,0,0-1.1.39.39,0,0,1,.31-.45.4.4,0,0,1,.47.29,13,13,0,0,0,1.68,4,.4.4,0,0,1-.55.55Z"/>
  <path d="M98.08,69.78l2.09,2.09-.57.56-2.09-2.09Zm-4.23-4.23L96,67.67l-.56.56-2.11-2.11Zm-4.23-4.22,2.12,2.11-.57.56-2.11-2.11ZM85.4,57.1l2.11,2.11-.56.57-2.12-2.12Zm-4.23-4.23L83.28,55l-.56.57-2.11-2.12Zm-4.23-4.23,2.12,2.12-.57.56-2.11-2.11Zm-4.22-4.22,2.11,2.11-.56.56L72.15,45Z"/>
  <path d="M100.62,72.88a12.93,12.93,0,0,1-1.74-4.12c.27,1.92-.46,2.66-2.38,2.38A13.4,13.4,0,0,1,100.62,72.88Z"/>
  <path d="M100.62,72.88l-.34.22a13.8,13.8,0,0,1-1.79-4.24l.39-.1.39-.06a4.18,4.18,0,0,1,0,1.37,1.86,1.86,0,0,1-.5,1,1.91,1.91,0,0,1-1,.48,4.6,4.6,0,0,1-1.33,0l.06-.4.1-.38a13.56,13.56,0,0,1,4.24,1.79l-.22.33-.34.22.34-.22-.22.33a13,13,0,0,0-4-1.68.41.41,0,0,1-.29-.47.4.4,0,0,1,.45-.31,3.68,3.68,0,0,0,1.09,0,1,1,0,0,0,.56-.25,1.06,1.06,0,0,0,.29-.6,3.12,3.12,0,0,0,0-1.1.4.4,0,0,1,.32-.45.39.39,0,0,1,.46.29,12.76,12.76,0,0,0,1.69,4,.41.41,0,0,1,0,.5.38.38,0,0,1-.5,0Z"/>
  <path d="M97.51,198.15l2.09-2.08.57.56-2.09,2.09Zm-4.22,4.23,2.11-2.11.56.56-2.11,2.11Zm-4.23,4.23,2.11-2.12.57.57-2.12,2.11Zm-4.23,4.22L87,208.72l.56.56L85.4,211.4Zm-4.22,4.23L82.72,213l.56.56-2.11,2.11Zm-4.23,4.23,2.11-2.12.57.57-2.12,2.11Zm-4.23,4.22,2.12-2.11.56.56-2.11,2.12Z"/>
  <path d="M100.62,195.61a12.93,12.93,0,0,1-4.12,1.74c1.92-.27,2.65.46,2.38,2.39A13,13,0,0,1,100.62,195.61Z"/>
  <path d="M100.62,195.61l.22.34a13.8,13.8,0,0,1-4.24,1.79l-.1-.39-.06-.39a4.37,4.37,0,0,1,1.35,0,1.72,1.72,0,0,1,1.49,1.49,4.37,4.37,0,0,1,0,1.35l-.39,0-.39-.11a14,14,0,0,1,1.79-4.24l.34.22.22.34-.22-.34.33.23a12.66,12.66,0,0,0-1.69,4,.4.4,0,0,1-.46.29.41.41,0,0,1-.32-.45,3.43,3.43,0,0,0,0-1.1.93.93,0,0,0-.85-.85,3.43,3.43,0,0,0-1.1,0,.41.41,0,0,1-.45-.32.4.4,0,0,1,.29-.46,12.73,12.73,0,0,0,4-1.69.41.41,0,0,1,.5.05.42.42,0,0,1,0,.51Z"/>
  <path d="M125.43,71.15l-1.29,1.28-.56-.56,1.28-1.29Zm4.22-4.23L127.54,69l-.56-.56,2.11-2.11Zm4.23-4.23-2.11,2.12-.57-.57,2.12-2.11Zm4.23-4.22L136,60.58l-.56-.56,2.11-2.12Zm4.22-4.23-2.11,2.11-.56-.56,2.11-2.11ZM146.56,50l-2.11,2.12-.57-.57L146,49.45Zm4.23-4.22-2.12,2.11-.56-.56,2.11-2.12Z"/>
  <path d="M123.13,72.88a13.4,13.4,0,0,1,4.12-1.74c-1.92.28-2.66-.46-2.38-2.38A13.4,13.4,0,0,1,123.13,72.88Z"/>
  <path d="M123.13,72.88l-.22-.33a13.56,13.56,0,0,1,4.24-1.79l.1.38.06.4a4.37,4.37,0,0,1-1.35,0,1.89,1.89,0,0,1-1-.49,1.92,1.92,0,0,1-.49-1,4.37,4.37,0,0,1,0-1.35l.4.06.38.1a13.56,13.56,0,0,1-1.79,4.24l-.33-.22-.22-.33.22.33-.33-.22a13,13,0,0,0,1.68-4,.4.4,0,0,1,.47-.29.39.39,0,0,1,.31.45,3.62,3.62,0,0,0,0,1.09.93.93,0,0,0,.85.85,3.62,3.62,0,0,0,1.09,0,.39.39,0,0,1,.45.31.4.4,0,0,1-.29.47,13,13,0,0,0-4,1.68.4.4,0,0,1-.55-.55Z"/>
  <path d="M77.56,147.24,78.85,146l.56.57-1.28,1.28Zm-4.22,4.22,2.11-2.11.56.56L73.9,152Zm-4.23,4.23,2.11-2.11.57.56-2.12,2.11Zm-4.23,4.23L67,157.8l.56.57-2.11,2.11Zm-4.22,4.22L62.77,162l.56.56-2.11,2.12Zm-4.23,4.23,2.11-2.11.57.56L57,168.94ZM52.2,172.6l2.12-2.12.56.57-2.11,2.11Z"/>
  <path d="M79.86,145.5a12.93,12.93,0,0,1-4.12,1.74c1.92-.27,2.65.46,2.38,2.38A13.4,13.4,0,0,1,79.86,145.5Z"/>
  <path d="M79.86,145.5l.22.34a13.8,13.8,0,0,1-4.24,1.79l-.1-.39-.06-.39a4.37,4.37,0,0,1,1.35,0,1.74,1.74,0,0,1,1.5,1.49,4.11,4.11,0,0,1,0,1.35l-.39-.06-.39-.1a14,14,0,0,1,1.8-4.24l.33.22.22.34-.22-.34.33.22a13,13,0,0,0-1.68,4A.41.41,0,0,1,78,150a.4.4,0,0,1-.31-.45,3.69,3.69,0,0,0,0-1.1,1,1,0,0,0-.27-.58,1,1,0,0,0-.58-.27,3.37,3.37,0,0,0-1.09,0,.4.4,0,0,1-.45-.32.39.39,0,0,1,.29-.46,12.76,12.76,0,0,0,4-1.69.41.41,0,0,1,.5.05.38.38,0,0,1,0,.5Z"/>
  <path d="M124.86,197.91l-1.28-1.28.56-.56,1.29,1.28Zm4.23,4.23L127,200l.56-.56,2.11,2.11Zm4.23,4.23-2.12-2.12.57-.56,2.11,2.11Zm4.22,4.22-2.11-2.11.56-.56,2.12,2.11Zm4.23,4.23-2.11-2.11.56-.57,2.11,2.12Zm4.23,4.23-2.12-2.12.57-.56,2.11,2.11Zm4.22,4.22-2.11-2.11.56-.56,2.12,2.11Z"/>
  <path d="M123.13,195.61a13.47,13.47,0,0,1,1.74,4.13c-.28-1.93.46-2.66,2.38-2.39A12.93,12.93,0,0,1,123.13,195.61Z"/>
  <path d="M123.13,195.61l.33-.22a13.77,13.77,0,0,1,1.79,4.24l-.38.11-.4,0a4.18,4.18,0,0,1,0-1.37,2,2,0,0,1,.51-1,1.77,1.77,0,0,1,1-.47,4.6,4.6,0,0,1,1.33,0l-.06.39-.1.39a13.8,13.8,0,0,1-4.24-1.79l.22-.34.33-.22-.33.22.22-.33a12.76,12.76,0,0,0,4,1.69.39.39,0,0,1,.29.46.4.4,0,0,1-.45.32,3.3,3.3,0,0,0-1.08,0,1,1,0,0,0-.57.25,1.17,1.17,0,0,0-.29.59,3.75,3.75,0,0,0,0,1.11.4.4,0,0,1-.31.45.41.41,0,0,1-.47-.29,12.9,12.9,0,0,0-1.68-4,.4.4,0,0,1,0-.51.41.41,0,0,1,.5-.05Z"/>
  <rect class="a" width="0.01" height="0.01"/>
  <rect class="a" x="269.99" width="0.01" height="0.01"/>
  <rect class="a" y="269.99" width="0.01" height="0.01"/>
  <rect class="a" x="269.99" y="269.99" width="0.01" height="0.01"/>
</svg>
